<?xml version="1.0" encoding="UTF-8" standalone="no"?>
<svg viewBox="0 0 23 23" version="1.1" xmlns="http://www.w3.org/2000/svg" xmlns:xlink="http://www.w3.org/1999/xlink">
    <!-- Generator: Sketch 50.2 (55047) - http://www.bohemiancoding.com/sketch -->
    <title>Slice 1</title>
    <desc>Created with Sketch.</desc>
    <defs></defs>
    <g id="Page-1" stroke="none" stroke-width="1" fill="none" fill-rule="evenodd">
        <g id="cross-icon" fill="#C3C1BD" fill-rule="nonzero">
            <path d="M3,-1.11022302e-16 C2.744125,-1.11022302e-16 2.4879687,0.0974687 2.2929688,0.2929688 L0.2929688,2.2929688 C-0.0980313,2.6839688 -0.0980313,3.3170313 0.2929688,3.7070312 L7.585938,11 L0.2929688,18.292969 C-0.0980313,18.683969 -0.0980313,19.317031 0.2929688,19.707031 L2.2929688,21.707031 C2.6839688,22.098031 3.3170313,22.098031 3.7070312,21.707031 L11,14.414062 L18.292969,21.707031 C18.682969,22.098031 19.317031,22.098031 19.707031,21.707031 L21.707031,19.707031 C22.098031,19.316031 22.098031,18.682969 21.707031,18.292969 L14.414062,11 L21.707031,3.7070312 C22.098031,3.3170312 22.098031,2.6829688 21.707031,2.2929688 L19.707031,0.2929688 C19.316031,-0.0980313 18.682969,-0.0980313 18.292969,0.2929688 L11,7.585938 L3.7070312,0.2929688 C3.5115312,0.0974687 3.255875,-1.11022302e-16 3,-1.11022302e-16 Z" id="Shape"></path>
        </g>
    </g>
</svg>